<svg width="151" height="40" viewBox="0 0 151 40" fill="none" xmlns="http://www.w3.org/2000/svg">
<path d="M10.872 5.73602C15.256 5.73602 18.664 6.64802 21.096 8.47202C23.528 10.296 24.744 13 24.744 16.584C24.744 20.328 23.544 23.16 21.144 25.08C18.776 26.968 15.592 27.912 11.592 27.912H7.992V39H0.119995V5.73602H10.872ZM10.92 22.248C12.776 22.248 14.184 21.816 15.144 20.952C16.136 20.056 16.632 18.6 16.632 16.584C16.632 13.096 14.68 11.352 10.776 11.352H7.992V22.248H10.92Z" fill="#141414"/>
<path d="M46.5289 31.608C46.5289 32.568 46.6569 33.272 46.9129 33.72C47.2009 34.168 47.6489 34.504 48.2569 34.728L46.6729 39.672C45.1049 39.544 43.8249 39.208 42.8329 38.664C41.8409 38.088 41.0729 37.192 40.5289 35.976C38.8649 38.536 36.3049 39.816 32.8489 39.816C30.3209 39.816 28.3049 39.08 26.8009 37.608C25.2969 36.136 24.5449 34.216 24.5449 31.848C24.5449 29.064 25.5689 26.936 27.6169 25.464C29.6649 23.992 32.6249 23.256 36.4969 23.256H39.0889V22.152C39.0889 20.648 38.7689 19.624 38.1289 19.08C37.4889 18.504 36.3689 18.216 34.7689 18.216C33.9369 18.216 32.9289 18.344 31.7449 18.6C30.5609 18.824 29.3449 19.144 28.0969 19.56L26.3689 14.568C27.9689 13.96 29.6009 13.496 31.2649 13.176C32.9609 12.856 34.5289 12.696 35.9689 12.696C39.6169 12.696 42.2889 13.448 43.9849 14.952C45.6809 16.456 46.5289 18.712 46.5289 21.72V31.608ZM35.0569 34.392C36.7849 34.392 38.1289 33.576 39.0889 31.944V27.432H37.2169C35.4889 27.432 34.1929 27.736 33.3289 28.344C32.4969 28.952 32.0809 29.896 32.0809 31.176C32.0809 32.2 32.3369 33 32.8489 33.576C33.3929 34.12 34.1289 34.392 35.0569 34.392Z" fill="#141414"/>
<path d="M68.5537 37.8C67.6257 38.44 66.5377 38.936 65.2897 39.288C64.0737 39.64 62.8577 39.816 61.6417 39.816C56.0737 39.784 53.2897 36.712 53.2897 30.6V18.792H49.6897V13.512H53.2897V7.99202L60.8737 7.12802V13.512H66.7297L65.9137 18.792H60.8737V30.504C60.8737 31.688 61.0657 32.536 61.4497 33.048C61.8337 33.56 62.4417 33.816 63.2737 33.816C64.1377 33.816 65.0497 33.544 66.0097 33L68.5537 37.8Z" fill="#141414"/>
<path d="M84.9094 12.792C85.8374 12.792 86.6854 12.904 87.4534 13.128L86.2534 20.472C85.2934 20.248 84.5254 20.136 83.9494 20.136C82.4454 20.136 81.2934 20.664 80.4934 21.72C79.7254 22.744 79.1174 24.296 78.6694 26.376V39H71.0854V13.512H77.7094L78.3334 18.456C78.9094 16.696 79.7734 15.32 80.9254 14.328C82.1094 13.304 83.4374 12.792 84.9094 12.792Z" fill="#141414"/>
<path d="M97.935 13.512V39H90.351V13.512H97.935ZM94.095 0.0720215C95.407 0.0720215 96.479 0.488022 97.311 1.32002C98.175 2.12002 98.607 3.14402 98.607 4.39202C98.607 5.64002 98.175 6.68002 97.311 7.51202C96.479 8.31202 95.407 8.71202 94.095 8.71202C92.783 8.71202 91.711 8.31202 90.879 7.51202C90.047 6.68002 89.631 5.64002 89.631 4.39202C89.631 3.14402 90.047 2.12002 90.879 1.32002C91.711 0.488022 92.783 0.0720215 94.095 0.0720215Z" fill="#141414"/>
<path d="M114.938 12.696C116.698 12.696 118.282 12.952 119.69 13.464C121.098 13.976 122.426 14.76 123.674 15.816L120.41 20.328C118.81 19.112 117.194 18.504 115.562 18.504C113.866 18.504 112.586 19.128 111.722 20.376C110.858 21.624 110.426 23.64 110.426 26.424C110.426 29.112 110.858 31.016 111.722 32.136C112.586 33.256 113.834 33.816 115.466 33.816C116.33 33.816 117.114 33.688 117.818 33.432C118.522 33.144 119.37 32.696 120.362 32.088L123.674 36.792C121.146 38.808 118.282 39.816 115.082 39.816C112.49 39.816 110.25 39.272 108.362 38.184C106.474 37.064 105.018 35.512 103.994 33.528C102.97 31.512 102.458 29.16 102.458 26.472C102.458 23.784 102.97 21.4 103.994 19.32C105.018 17.24 106.474 15.624 108.362 14.472C110.25 13.288 112.442 12.696 114.938 12.696Z" fill="#141414"/>
<path d="M134.451 2.56802V39H126.867V3.38402L134.451 2.56802ZM150.195 13.512L142.467 24.696L150.819 39H142.275L134.691 25.08L142.467 13.512H150.195Z" fill="#141414"/>
</svg>
