<svg width="85" height="85" viewBox="0 0 85 85" fill="none" xmlns="http://www.w3.org/2000/svg">
<path d="M15 27C15 24.7909 13.2091 23 11 23C8.79086 23 7 24.7909 7 27C7 29.2091 8.79086 31 11 31C13.2091 31 15 29.2091 15 27Z" fill="#242424"/>
<path d="M15 11C15 8.79086 13.2091 7 11 7C8.79086 7 7 8.79086 7 11C7 13.2091 8.79086 15 11 15C13.2091 15 15 13.2091 15 11Z" fill="#242424"/>
<path d="M63 75C63 72.7909 61.2091 71 59 71C56.7909 71 55 72.7909 55 75C55 77.2091 56.7909 79 59 79C61.2091 79 63 77.2091 63 75Z" fill="#242424"/>
<path d="M63 59C63 56.7909 61.2091 55 59 55C56.7909 55 55 56.7909 55 59C55 61.2091 56.7909 63 59 63C61.2091 63 63 61.2091 63 59Z" fill="#242424"/>
<path d="M63 43C63 40.7909 61.2091 39 59 39C56.7909 39 55 40.7909 55 43C55 45.2091 56.7909 47 59 47C61.2091 47 63 45.2091 63 43Z" fill="#242424"/>
<path d="M63 27C63 24.7909 61.2091 23 59 23C56.7909 23 55 24.7909 55 27C55 29.2091 56.7909 31 59 31C61.2091 31 63 29.2091 63 27Z" fill="#242424"/>
<path d="M63 11C63 8.79086 61.2091 7 59 7C56.7909 7 55 8.79086 55 11C55 13.2091 56.7909 15 59 15C61.2091 15 63 13.2091 63 11Z" fill="#242424"/>
<path d="M31 59C31 56.7909 29.2091 55 27 55C24.7909 55 23 56.7909 23 59C23 61.2091 24.7909 63 27 63C29.2091 63 31 61.2091 31 59Z" fill="#242424"/>
<path d="M31 43C31 40.7909 29.2091 39 27 39C24.7909 39 23 40.7909 23 43C23 45.2091 24.7909 47 27 47C29.2091 47 31 45.2091 31 43Z" fill="#242424"/>
<path d="M31 27C31 24.7909 29.2091 23 27 23C24.7909 23 23 24.7909 23 27C23 29.2091 24.7909 31 27 31C29.2091 31 31 29.2091 31 27Z" fill="#242424"/>
<path d="M31 11C31 8.79086 29.2091 7 27 7C24.7909 7 23 8.79086 23 11C23 13.2091 24.7909 15 27 15C29.2091 15 31 13.2091 31 11Z" fill="#242424"/>
<path d="M79 75C79 72.7909 77.2091 71 75 71C72.7909 71 71 72.7909 71 75C71 77.2091 72.7909 79 75 79C77.2091 79 79 77.2091 79 75Z" fill="#242424"/>
<path d="M79 59C79 56.7909 77.2091 55 75 55C72.7909 55 71 56.7909 71 59C71 61.2091 72.7909 63 75 63C77.2091 63 79 61.2091 79 59Z" fill="#242424"/>
<path d="M79 43C79 40.7909 77.2091 39 75 39C72.7909 39 71 40.7909 71 43C71 45.2091 72.7909 47 75 47C77.2091 47 79 45.2091 79 43Z" fill="#242424"/>
<path d="M79 27C79 24.7909 77.2091 23 75 23C72.7909 23 71 24.7909 71 27C71 29.2091 72.7909 31 75 31C77.2091 31 79 29.2091 79 27Z" fill="#242424"/>
<path d="M79 11C79 8.79086 77.2091 7 75 7C72.7909 7 71 8.79086 71 11C71 13.2091 72.7909 15 75 15C77.2091 15 79 13.2091 79 11Z" fill="#242424"/>
<path d="M47 59C47 56.7909 45.2091 55 43 55C40.7909 55 39 56.7909 39 59C39 61.2091 40.7909 63 43 63C45.2091 63 47 61.2091 47 59Z" fill="#242424"/>
<path d="M47 43C47 40.7909 45.2091 39 43 39C40.7909 39 39 40.7909 39 43C39 45.2091 40.7909 47 43 47C45.2091 47 47 45.2091 47 43Z" fill="#242424"/>
<path d="M47 27C47 24.7909 45.2091 23 43 23C40.7909 23 39 24.7909 39 27C39 29.2091 40.7909 31 43 31C45.2091 31 47 29.2091 47 27Z" fill="#242424"/>
<path d="M47 11C47 8.79086 45.2091 7 43 7C40.7909 7 39 8.79086 39 11C39 13.2091 40.7909 15 43 15C45.2091 15 47 13.2091 47 11Z" fill="#242424"/>
</svg>
